# xmcd
#
# Track frame offsets: 
#        150
#        23108
#        46988
#        72665
#        103190
#        131058
#        152360
#        180413
#        216403
#        237523
#        265658
#        283770
#
# Disc length: 4144 seconds
#
# Revision: 1
# Processed by: cddbd v1.5.2PL0 Copyright (c) Steve Scherf et al.
# Submitted via: ExactAudioCopy v0.95b3
#
DISCID=b0102e0c
DTITLE=Dick Heckstall-Smith and Friends - Blues And Beyond
DYEAR=2001
DGENRE=Blues
TTITLE0=Rollin' And Tumblin'
TTITLE1=Millenium Blues
TTITLE2=Watching Your Every Move
TTITLE3=Cruel Contradictions
TTITLE4=Angie Baby
TTITLE5=Grind, Glitch And Snit
TTITLE6=Spooky But Nice
TTITLE7=Hidden Agenda
TTITLE8=Twilight Shuffle
TTITLE9=(Dix WWW) Swamp
TTITLE10=Big Deal
TTITLE11=If Youu Know You Don't Love Me Why In The World Don't You Lea
TTITLE11=ve Me Be
EXTD=Feat. Jack Bruce, John Mayall, Peter Green, Mick Taylor,\r\nJon H
EXTD=iseman, Paul Jones, Pete Brown, Clem Clempson,\r\nGary Husband, P
EXTD=aul Williams, Rab McCullough
EXTT0=
EXTT1=
EXTT2=
EXTT3=
EXTT4=
EXTT5=
EXTT6=
EXTT7=
EXTT8=
EXTT9=
EXTT10=
EXTT11=
PLAYORDER=
